<?xml version="1.0" standalone="no"?>
<!DOCTYPE svg PUBLIC "-//W3C//DTD SVG 20010904//EN"
 "http://www.w3.org/TR/2001/REC-SVG-20010904/DTD/svg10.dtd">
<svg version="1.0" xmlns="http://www.w3.org/2000/svg"
 width="700.000000pt" height="670.000000pt" viewBox="0 0 700.000000 670.000000"
 preserveAspectRatio="xMidYMid meet">

<g transform="translate(0.000000,670.000000) scale(0.100000,-0.100000)"
fill="#000000" stroke="none">
<path d="M5266 6590 c-21 -50 -37 -92 -35 -94 2 -3 27 0 54 5 28 5 64 11 82
14 l32 6 -32 58 c-63 114 -57 113 -101 11z"/>
<path d="M6520 6504 c-14 -10 -54 -38 -89 -62 l-64 -45 41 -12 c22 -7 53 -16
69 -20 26 -6 27 -6 10 13 -18 20 -23 42 -8 42 5 0 28 -21 50 -46 47 -54 48
-51 28 74 l-12 73 -25 -17z"/>
<path d="M402 6308 c-22 -51 -40 -93 -39 -94 4 -4 160 25 164 30 5 4 -75 156
-81 156 -2 0 -21 -42 -44 -92z"/>
<path d="M4723 6293 c-39 -49 -112 -159 -119 -177 -5 -12 10 -14 93 -9 54 3
99 7 100 8 4 2 -36 207 -41 212 -2 2 -17 -13 -33 -34z"/>
<path d="M1712 6138 c-28 -6 -40 -13 -35 -21 3 -7 29 -45 56 -86 56 -83 48
-86 102 38 l34 81 -57 -1 c-31 -1 -76 -5 -100 -11z"/>
<path d="M4573 5282 c-29 -15 -53 -29 -53 -32 0 -3 6 -15 14 -26 14 -18 15
-18 25 9 15 38 23 34 16 -10 -5 -37 -2 -34 17 16 14 39 20 16 7 -28 -11 -36
-10 -44 3 -58 18 -17 20 -10 32 87 9 66 0 72 -61 42z"/>
<path d="M1514 4864 c-36 -46 -106 -149 -123 -182 -12 -23 -12 -24 21 -17 18
4 65 10 103 14 l70 6 -20 109 -20 110 -31 -40z"/>
<path d="M5391 4883 c34 -84 64 -143 73 -143 7 0 38 26 70 59 l58 59 -69 11
c-37 7 -83 14 -102 18 -19 3 -32 2 -30 -4z"/>
<path d="M3398 4787 c-58 -23 -109 -45 -113 -48 -3 -4 17 -23 46 -43 28 -21
52 -36 54 -34 2 2 7 18 12 37 5 19 15 37 22 39 11 4 13 -7 8 -52 -6 -56 -5
-56 36 -92 l42 -35 6 58 c10 83 10 213 2 212 -5 0 -56 -19 -115 -42z"/>
<path d="M3645 3968 c-8 -26 -34 -202 -30 -206 2 -2 13 -1 25 3 16 5 20 12 16
28 -3 12 -9 40 -12 62 -5 37 -4 38 10 22 8 -11 18 -36 21 -58 4 -21 11 -39 16
-39 12 0 12 0 -6 50 -18 50 -19 70 -4 70 9 0 22 -25 43 -84 6 -18 9 -17 39 12
l32 33 -65 59 c-68 62 -78 68 -85 48z"/>
<path d="M583 3771 l-83 -58 60 -16 c71 -20 78 -21 62 -5 -14 14 -16 38 -2 38
5 0 28 -19 50 -42 29 -30 40 -37 36 -23 -2 11 -7 45 -11 75 -8 66 -14 90 -23
90 -4 -1 -44 -27 -89 -59z"/>
<path d="M6768 3602 c-88 -62 -86 -59 -38 -72 23 -6 48 -14 57 -17 13 -5 14
-3 3 16 -20 39 -1 36 41 -5 l41 -39 -5 35 c-3 19 -9 56 -13 83 -3 26 -9 47
-13 47 -3 -1 -36 -22 -73 -48z"/>
<path d="M6016 2284 c-21 -47 -35 -88 -32 -91 3 -3 41 0 85 7 l81 12 -43 79
c-23 43 -45 79 -48 79 -3 0 -22 -39 -43 -86z"/>
<path d="M3905 2298 l-89 -62 58 -18 c60 -18 79 -17 58 4 -16 16 -15 28 2 28
8 0 30 -19 50 -42 33 -40 36 -41 35 -18 0 14 -6 58 -12 98 l-12 73 -90 -63z"/>
<path d="M6797 1896 l-88 -61 34 -11 c18 -6 47 -15 66 -19 31 -7 32 -6 20 14
-26 41 4 35 43 -9 l41 -45 -7 65 c-4 36 -10 79 -14 96 l-7 31 -88 -61z"/>
<path d="M506 1836 c-44 -48 -77 -88 -75 -90 2 -2 13 -6 25 -10 17 -5 23 1 38
44 18 50 36 74 36 47 0 -8 -7 -34 -15 -57 -18 -50 -18 -50 -6 -50 5 0 12 18
16 39 7 42 29 80 40 69 4 -4 2 -28 -3 -55 -6 -26 -9 -50 -6 -52 2 -2 21 0 42
5 l39 9 -26 94 -27 93 -78 -86z"/>
<path d="M4173 1518 c-52 -70 -115 -169 -110 -174 2 -2 28 0 57 6 29 5 72 10
96 10 24 0 44 3 44 8 1 23 -36 202 -41 202 -4 0 -24 -24 -46 -52z"/>
<path d="M1485 1429 c-143 -99 -140 -92 -44 -118 83 -23 101 -23 74 -1 -18 15
-20 50 -2 50 7 0 32 -25 56 -55 44 -55 67 -70 57 -37 -2 9 -10 60 -17 112 -6
52 -15 100 -18 107 -4 7 -42 -14 -106 -58z"/>
<path d="M1155 838 l-89 -62 58 -18 c60 -18 79 -17 58 4 -16 16 -15 28 1 28 6
0 29 -19 49 -42 43 -49 43 -48 25 75 l-12 77 -90 -62z"/>
<path d="M3968 396 l-88 -61 58 -17 c68 -21 80 -22 64 -6 -15 15 -16 38 -2 38
6 0 26 -18 46 -40 20 -22 38 -39 39 -38 3 4 -23 179 -27 182 -2 2 -42 -25 -90
-58z"/>
<path d="M528 296 c-59 -22 -108 -44 -108 -47 0 -3 24 -22 54 -42 l54 -36 9
36 c5 20 15 39 22 41 11 4 13 -6 8 -51 l-5 -56 42 -35 43 -35 7 67 c10 113 8
202 -6 201 -7 -1 -61 -20 -120 -43z"/>
</g>
</svg>
